tugOfWar_states
nRows=12
nColumns=19

# SIMM Motion File Header:
name tugOfWar_states
datacolumns 19
datarows 12
otherdata 1
range 3.76705959 3.78635203
endheader
time	blockToGround_xRotation	blockToGround_yRotation	blockToGround_zRotation	blockToGround_xTranslation	blockToGround_yTranslation	blockToGround_zTranslation	blockToGround_xRotation_u	blockToGround_yRotation_u	blockToGround_zRotation_u	blockToGround_xTranslation_u	blockToGround_yTranslation_u	blockToGround_zTranslation_u	Liu.activation	Liu.fiber_length	Liu.active_motor_units	Liu.fatigued_motor_units	Thelen.activation	Thelen.fiber_length
      3.76705959	      0.00000000	     -0.00000000	     -0.00000000	      0.00138457	     -0.00019460	     -0.03368024	      0.00000000	     -0.00000000	     -0.00000000	     -0.01272410	      0.00000039	      0.00000974	      0.75326449	      0.06247373	      0.75326449	      0.00000000	      0.75326449	      0.12869649
      3.77025464	      0.00000000	     -0.00000000	     -0.00000000	      0.00134405	     -0.00019460	     -0.03368017	      0.00000000	     -0.00000000	     -0.00000000	     -0.01263644	      0.00000046	     -0.00000556	      0.75380937	      0.06247297	      0.75380937	      0.00000000	      0.75380937	      0.12869485
      3.77291672	      0.00000000	     -0.00000000	     -0.00000000	      0.00131051	     -0.00019460	     -0.03368013	      0.00000000	     -0.00000000	     -0.00000000	     -0.01256407	      0.00000046	     -0.00000841	      0.75455294	      0.06247195	      0.75455294	      0.00000000	      0.75455294	      0.12869315
      3.77484126	      0.00000000	     -0.00000000	     -0.00000000	      0.00128638	     -0.00019460	     -0.03368013	      0.00000000	     -0.00000000	     -0.00000000	     -0.01251206	      0.00000042	     -0.00000498	      0.75588593	      0.06247073	      0.75588593	      0.00000000	      0.75588593	      0.12869147
      3.77676580	      0.00000000	     -0.00000000	     -0.00000000	      0.00126235	     -0.00019460	     -0.03368014	      0.00000000	     -0.00000000	     -0.00000000	     -0.01246080	      0.00000042	     -0.00001243	      0.75588454	      0.06246964	      0.75588454	      0.00000000	      0.75588454	      0.12868985
      3.77885045	      0.00000000	     -0.00000000	     -0.00000000	      0.00123643	     -0.00019459	     -0.03368018	      0.00000000	     -0.00000000	     -0.00000000	     -0.01240585	      0.00000042	     -0.00001722	      0.75588387	      0.06246894	      0.75588387	      0.00000000	      0.75588387	      0.12868860
      3.77957328	      0.00000000	     -0.00000000	     -0.00000000	      0.00122747	     -0.00019459	     -0.03368019	      0.00000000	     -0.00000000	     -0.00000000	     -0.01238689	      0.00000041	     -0.00001558	      0.75587313	      0.06246877	      0.75587313	      0.00000000	      0.75587313	      0.12868826
      3.78134458	      0.00000000	     -0.00000000	     -0.00000000	      0.00120557	     -0.00019459	     -0.03368021	      0.00000000	     -0.00000000	     -0.00000000	     -0.01234075	      0.00000042	     -0.00001362	      0.75698248	      0.06246795	      0.75698248	      0.00000000	      0.75698248	      0.12868702
      3.78311587	      0.00000000	     -0.00000000	     -0.00000000	      0.00118375	     -0.00019459	     -0.03368023	      0.00000000	     -0.00000000	     -0.00000000	     -0.01229504	      0.00000042	     -0.00001246	      0.75698153	      0.06246715	      0.75698153	      0.00000000	      0.75698153	      0.12868578
      3.78484688	      0.00000000	     -0.00000000	     -0.00000000	      0.00116251	     -0.00019459	     -0.03368025	      0.00000000	     -0.00000000	     -0.00000000	     -0.01225069	      0.00000041	     -0.00000820	      0.75698121	      0.06246665	      0.75698121	      0.00000000	      0.75698121	      0.12868489
      3.78542996	      0.00000000	     -0.00000000	     -0.00000000	      0.00115537	     -0.00019459	     -0.03368025	      0.00000000	     -0.00000000	     -0.00000000	     -0.01223581	      0.00000041	     -0.00000515	      0.75671666	      0.06246652	      0.75671666	      0.00000000	      0.75671666	      0.12868462
      3.78635203	      0.00000000	     -0.00000000	     -0.00000000	      0.00114410	     -0.00019459	     -0.03368025	      0.00000000	     -0.00000000	     -0.00000000	     -0.01221236	      0.00000040	     -0.00000077	      0.75771444	      0.06246615	      0.75771444	      0.00000000	      0.75771444	      0.12868406
